:SAMPLES-PER-SECOND 30
:FULLY-SPECIFIED
:DEGREES
694
root  39.8988 35.8746 -40.9512 31.3342 -22.179 -3.98225
RightUpLeg  -71.9741 -12.9706 7.08637
RightLeg  58.7096 -3.35067 -6.38512
RightFoot  -5.00373 -0.34355 5.64839
RightToes  2.91037e-010 0 -3.6325e-017
Spine  71.7879 -5.09385 9.24813
Spine1  11.668 4.63788 -7.70728
HEad  -48.9679 -3.33579 3.01789
LeftShoulder1  5.05071 -29.3901 -7.63922
LeftArm  -65.3351 -64.358 32.8907
LeftForeArm  61.7844 -6.57078 -3.58238
LeftHand  -0.244104 0.0205437 5.32207
RightShoulder  2.00702 17.5325 1.28309
RightArm  -54.5045 58.3557 -21.0823
RightForeArm  25.6221 5.77011 2.92678
RightHand  -6.63253 17.7414 -32.7024
LeftUpLeg  -57.1515 24.6589 -24.4028
LeftLeg  48.4642 9.11269 11.2771
LeftFoot  -28.6315 0.594955 2.78358
LeftToes  -1.10052e-010 1.3781e-010 -2.1811e-011
695
root  40.1206 35.7098 -40.0862 30.6438 -24.4781 -3.26868
RightUpLeg  -73.5194 -14.8813 14.8284
RightLeg  52.8585 -4.58865 -6.96807
RightFoot  -7.69961 -0.228143 5.64177
RightToes  2.91037e-010 0 -3.6325e-017
Spine  71.3183 -4.82652 8.55058
Spine1  12.2794 3.98905 -6.84327
HEad  -50.2434 -2.2256 2.49915
LeftShoulder1  4.88394 -28.3926 -7.60814
LeftArm  -67.6459 -64.7467 36.6226
LeftForeArm  60.4581 -3.81103 -3.81403
LeftHand  -0.244104 0.0205437 5.32207
RightShoulder  1.56548 18.0144 -1.31347
RightArm  -55.7454 59.2742 -19.5292
RightForeArm  25.6538 4.58274 2.28757
RightHand  -6.0283 16.2547 -31.826
LeftUpLeg  -55.481 25.4616 -25.9443
LeftLeg  48.8512 9.91868 12.362
LeftFoot  -30.1745 0.450805 1.62318
LeftToes  -1.10052e-010 1.3781e-010 -2.1811e-011
696
root  40.2537 35.5273 -39.0824 30.2438 -26.5744 -2.16782
RightUpLeg  -74.829 -18.1114 25.6165
RightLeg  45.7366 -2.45393 -3.0669
RightFoot  -7.35852 -0.385535 9.55299
RightToes  2.91037e-010 0 -3.6325e-017
Spine  70.8508 -4.74712 8.38732
Spine1  12.1243 3.89619 -6.65315
HEad  -50.8162 -2.40655 2.61112
LeftShoulder1  4.70664 -29.0938 -6.63567
LeftArm  -68.3343 -64.9464 37.6078
LeftForeArm  59.6755 -1.36113 -3.76272
LeftHand  -0.244104 0.0205437 5.32207
RightShoulder  1.71464 17.7083 -0.369357
RightArm  -56.5888 60.1976 -20.6583
RightForeArm  25.8738 4.0274 2.405
RightHand  -5.36213 14.7465 -30.5038
LeftUpLeg  -54.1886 26.3601 -28.022
LeftLeg  49.2655 10.3364 13.0272
LeftFoot  -31.3562 0.312295 0.692901
LeftToes  -1.10052e-010 1.3781e-010 -2.1811e-011
697
root  40.2731 35.3795 -37.9967 29.9303 -28.375 -0.644302
RightUpLeg  -75.4124 -21.6829 37.6536
RightLeg  38.6303 0.349389 0.0412611
RightFoot  -6.44871 -0.424963 8.94242
RightToes  2.91037e-010 0 -3.6325e-017
Spine  70.3513 -4.58081 8.42002
Spine1  11.6112 3.80282 -6.30391
HEad  -50.5579 -3.25548 3.25978
LeftShoulder1  4.65158 -30.5555 -5.73028
LeftArm  -67.9032 -65.0538 36.7351
LeftForeArm  59.6356 0.35643 -3.53302
LeftHand  -0.244104 0.0205437 5.32207
RightShoulder  2.16328 17.0418 2.38572
RightArm  -56.8239 61.0283 -22.5403
RightForeArm  26.9441 4.198 2.91657
RightHand  -4.6627 13.3623 -28.6163
LeftUpLeg  -53.084 27.419 -30.4471
LeftLeg  49.5461 10.4937 13.3386
LeftFoot  -31.9241 0.274479 0.451455
LeftToes  -1.10052e-010 1.3781e-010 -2.1811e-011
698
root  40.2006 35.2388 -36.8568 29.3719 -30.437 1.31758
RightUpLeg  -75.1964 -24.131 46.0177
RightLeg  33.7145 0.621153 0.233377
RightFoot  -8.54521 -0.0587071 -1.90654
RightToes  2.91037e-010 0 -3.6325e-017
Spine  69.9472 -4.19318 7.71914
Spine1  11.9223 2.99988 -5.51276
HEad  -50.2016 -3.38264 3.68834
LeftShoulder1  4.56051 -30.2445 -5.57894
LeftArm  -68.432 -65.2791 36.9844
LeftForeArm  59.5838 0.966833 -3.42829
LeftHand  -0.244104 0.0205437 5.32207
RightShoulder  2.1268 16.799 2.33333
RightArm  -56.5707 61.5872 -21.6028
RightForeArm  27.8556 4.41627 2.89131
RightHand  -4.51655 13.1589 -28.0451
LeftUpLeg  -51.9441 29.1101 -33.3594
LeftLeg  49.6021 9.98275 12.7649
LeftFoot  -32.1047 0.114789 -0.418722
LeftToes  -1.10052e-010 1.3781e-010 -2.1811e-011
699
root  40.18 35.0801 -35.6393 28.6416 -33.2175 2.79936
RightUpLeg  -73.4574 -23.1892 45.314
RightLeg  33.0177 -3.96612 -3.08761
RightFoot  -12.3255 -0.190595 -14.8396
RightToes  2.91037e-010 0 -3.6325e-017
Spine  70.1256 -3.96431 7.40466
Spine1  11.9974 2.76783 -5.81733
HEad  -49.4706 -4.02244 3.89854
LeftShoulder1  4.40843 -30.0226 -5.17738
LeftArm  -67.9252 -65.5038 36.0507
LeftForeArm  59.8293 0.689989 -3.4109
LeftHand  -0.244104 0.0205437 5.32207
RightShoulder  2.02457 16.3971 1.99423
RightArm  -55.0046 61.6281 -19.8411
RightForeArm  27.3632 4.47765 3.0045
RightHand  -5.25898 14.6866 -30.0142
LeftUpLeg  -51.2036 31.669 -36.071
LeftLeg  50.4632 8.54729 11.3777
LeftFoot  -31.37 -0.400929 -3.36836
LeftToes  -1.10052e-010 1.3781e-010 -2.1811e-011
